<svg width="1668" height="1800" viewBox="0 0 1668 1800" fill="none" xmlns="http://www.w3.org/2000/svg">
<path d="M713.369 105.69C711.321 117.16 708.248 128.016 704.152 138.257C700.465 148.498 695.754 158.739 690.019 168.98C675.681 195.608 660.114 221.211 643.319 245.79C626.933 270.369 609.727 294.948 591.703 319.527C583.92 330.178 576.136 340.624 568.353 350.865C560.569 361.106 552.786 371.552 545.003 382.203C542.955 385.48 540.906 388.553 538.858 391.42C536.81 394.288 535.99 397.975 536.4 402.481C536.81 404.529 536.195 405.963 534.557 406.782C532.918 407.601 531.075 408.011 529.026 408.011C525.749 407.192 522.677 406.168 519.809 404.939C516.942 403.71 514.484 401.866 512.436 399.408C509.568 396.131 508.749 392.444 509.978 388.348C511.616 379.336 514.689 371.143 519.195 363.769C523.701 355.986 528.207 348.407 532.713 341.033C548.28 315.225 564.051 289.827 580.028 264.839C596.004 239.85 611.161 214.247 625.499 188.029C632.463 174.92 639.017 161.812 645.162 148.703C651.307 135.184 656.223 121.256 659.91 106.919C661.138 101.183 661.958 95.4483 662.367 89.7133C662.777 83.9782 662.163 78.2431 660.524 72.508C659.295 68.0018 656.427 65.7488 651.921 65.7488C631.029 65.7488 608.908 69.8452 585.558 78.0382C562.208 86.2313 539.063 96.6773 516.122 109.376C493.592 122.076 472.085 135.799 451.603 150.546C431.53 164.884 414.12 178.607 399.372 191.716C386.264 203.596 371.516 217.934 355.13 234.729C339.154 251.115 323.792 268.73 309.045 287.574C294.707 306.418 282.008 325.876 270.947 345.949C260.296 366.022 253.537 385.275 250.67 403.71C248.212 419.276 249.031 433.819 253.127 447.337C257.634 460.446 266.646 471.712 280.164 481.134C292.044 490.146 304.538 497.724 317.647 503.869C330.756 509.604 343.865 515.339 356.974 521.074C370.082 526.809 383.396 532.545 396.914 538.28C410.433 544.015 423.542 550.774 436.241 558.557C443.205 562.654 449.759 567.16 455.904 572.076C462.458 576.992 468.398 582.522 473.724 588.667C475.772 590.715 477.206 591.739 478.025 591.739C479.254 591.739 480.688 591.124 482.326 589.896C489.29 584.98 496.254 580.678 503.219 576.992C510.592 572.895 518.376 569.003 526.569 565.316C530.255 564.088 533.533 563.473 536.4 563.473C540.087 563.473 544.388 564.497 549.304 566.545C553.81 568.594 556.063 571.256 556.063 574.534C556.063 577.811 553.81 580.678 549.304 583.136C540.701 586.413 532.508 590.305 524.725 594.811C516.942 599.317 509.363 604.233 501.99 609.559C497.483 612.836 495.026 615.089 494.616 616.318C494.206 617.547 495.026 620.619 497.074 625.535C503.219 641.102 505.676 656.668 504.447 672.235C503.628 687.802 499.736 703.164 492.772 718.321C486.628 732.658 477.82 746.791 466.35 760.719C455.29 774.238 442.59 786.732 428.253 798.202C414.325 809.672 399.372 819.709 383.396 828.312C367.829 836.505 352.263 842.444 336.696 846.131C331.371 847.36 326.045 847.975 320.72 847.975C312.936 847.975 305.972 846.541 299.827 843.673C291.225 839.577 285.49 834.661 282.622 828.926C279.755 823.191 279.755 815.612 282.622 806.19C286.719 790.624 295.321 774.033 308.43 756.418C321.539 738.393 336.286 720.778 352.672 703.573C369.468 685.958 386.264 669.572 403.059 654.415C420.264 639.258 434.602 626.764 446.072 616.932C449.35 614.065 449.759 610.788 447.301 607.101C441.157 598.498 433.988 591.124 425.795 584.98C417.602 578.425 408.794 572.69 399.372 567.774C386.264 561.63 372.95 555.895 359.432 550.569C346.323 545.244 333.214 539.509 320.105 533.364C306.177 527.219 292.454 520.665 278.935 513.701C265.827 506.327 253.332 497.724 241.452 487.893C212.777 464.133 200.692 433.409 205.198 395.722C207.656 374.829 214.62 353.118 226.091 330.587C237.561 308.057 251.079 286.345 266.646 265.453C282.213 244.151 298.803 224.283 316.418 205.849C334.443 187.005 350.829 171.029 365.576 157.92C382.372 143.173 401.421 128.22 422.722 113.063C444.024 97.9063 466.555 83.9782 490.315 71.2791C514.074 58.5799 538.244 48.3387 562.823 40.5553C587.402 32.3623 610.956 28.2658 633.487 28.2658C640.042 28.2658 647.006 29.2899 654.379 31.3382C662.163 33.3864 669.946 36.0492 677.729 39.3264C707.224 52.4352 719.104 74.5563 713.369 105.69ZM462.049 641.511C460.82 642.331 459.796 642.945 458.976 643.355C458.567 643.764 457.952 644.379 457.133 645.198C447.301 653.801 435.012 665.066 420.264 678.994C405.517 692.922 390.77 707.875 376.022 723.851C361.275 739.418 347.961 755.189 336.081 771.165C324.202 787.142 316.418 801.684 312.731 814.793C312.322 816.022 311.912 817.456 311.502 819.094C311.093 820.733 311.503 821.962 312.731 822.781C313.141 823.191 313.756 823.396 314.575 823.396C315.804 823.396 317.647 822.986 320.105 822.167C364.757 807.419 401.421 781.611 430.096 744.743C441.976 729.996 450.988 714.224 457.133 697.428C463.278 680.633 464.916 661.994 462.049 641.511Z" fill="#593848"/>
<path d="M817.306 452.868C806.246 473.76 796.209 495.062 787.197 516.773C778.594 538.075 771.425 560.401 765.69 583.751C763.232 593.173 761.184 602.595 759.546 612.017C757.907 621.438 758.112 631.27 760.16 641.511C760.57 645.608 761.594 647.656 763.232 647.656C764.871 647.656 767.534 646.222 771.221 643.355C774.907 640.078 778.799 636.595 782.896 632.909C787.402 628.812 791.498 624.921 795.185 621.234C798.872 617.137 801.33 614.474 802.559 613.246C816.487 597.679 829.8 582.112 842.5 566.545C855.608 550.569 867.898 533.978 879.368 516.773C881.416 513.086 884.694 511.243 889.2 511.243C892.477 512.062 895.549 512.881 898.417 513.701C901.284 514.11 903.742 515.954 905.79 519.231C906.61 521.279 906.61 523.123 905.79 524.761C904.971 526.4 904.152 528.243 903.333 530.291C896.778 541.352 889.2 552.822 880.597 564.702C871.994 576.582 862.982 588.462 853.56 600.342C844.138 612.221 834.307 623.692 824.065 634.752C814.234 645.403 804.607 655.03 795.185 663.632C785.763 671.825 776.341 675.922 766.919 675.922C754.22 675.922 743.979 671.621 736.196 663.018C728.412 654.415 723.496 644.379 721.448 632.909C720.219 625.945 719.81 619.185 720.219 612.631C720.629 605.667 721.448 598.703 722.677 591.739C722.677 590.92 722.677 590.1 722.677 589.281C723.087 588.462 722.882 587.438 722.063 586.209C717.556 592.353 713.05 598.498 708.544 604.643C704.448 610.378 700.146 616.113 695.64 621.848C691.134 627.583 686.423 633.318 681.507 639.053C677.001 644.379 672.085 649.704 666.76 655.03C665.531 656.259 664.302 657.488 663.073 658.717C661.844 659.946 660.615 660.97 659.386 661.789C652.422 668.343 644.434 671.621 635.422 671.621C625.18 671.621 616.373 668.343 608.999 661.789C601.626 655.235 597.324 646.837 596.095 636.596C594.457 625.535 594.662 614.884 596.71 604.643C598.758 593.992 601.421 583.546 604.698 573.305C608.795 562.244 614.939 548.316 623.132 531.52C631.325 514.315 640.952 497.929 652.013 482.362C663.073 466.796 675.363 453.482 688.881 442.422C702.399 430.951 716.123 425.216 730.051 425.216C739.473 425.216 748.895 427.674 758.317 432.59C768.148 437.506 774.498 445.289 777.365 455.94C779.823 452.663 782.076 449.59 784.125 446.723C786.582 443.446 788.835 440.169 790.884 436.891C793.751 432.795 797.643 430.747 802.559 430.747C807.065 430.747 811.571 432.385 816.077 435.662C818.945 437.711 820.379 439.964 820.379 442.422C820.788 444.88 819.764 448.362 817.306 452.868ZM756.473 491.58C757.293 490.76 758.112 489.736 758.931 488.507C760.16 487.278 759.75 485.844 757.702 484.206C755.654 482.567 754.425 480.724 754.015 478.676C753.606 476.627 753.401 474.374 753.401 471.916C753.401 469.049 752.991 466.386 752.172 463.928C751.762 461.47 751.148 458.808 750.328 455.94C749.1 451.844 746.846 449.795 743.569 449.795C742.75 449.795 741.111 450.205 738.653 451.024C732.509 453.892 726.978 457.374 722.063 461.47C717.147 465.567 712.436 470.073 707.93 474.989C698.917 485.23 689.905 496.905 680.893 510.014C672.29 523.123 664.302 537.051 656.928 551.798C649.964 566.136 644.229 580.883 639.723 596.04C635.627 610.788 633.578 625.33 633.578 639.668C637.265 637.62 640.542 635.367 643.41 632.909C646.277 630.041 648.94 627.174 651.398 624.306C670.652 603.414 688.676 581.907 705.472 559.786C722.677 537.255 739.678 514.52 756.473 491.58Z" fill="#593848"/>
<path d="M1028.8 574.534C1027.98 575.763 1027.16 576.787 1026.34 577.606C1025.93 578.425 1026.13 579.654 1026.95 581.293C1031.46 589.486 1033.92 597.884 1034.33 606.486C1035.15 614.679 1035.15 623.077 1034.33 631.68C1032.69 650.524 1027.16 670.392 1017.74 691.284C1008.72 711.766 997.662 731.634 984.554 750.888C971.854 770.141 957.926 788.371 942.769 805.576C927.612 822.372 912.865 836.505 898.527 847.975C890.334 854.529 881.936 860.264 873.334 865.18C864.731 870.096 855.104 873.578 844.453 875.626C843.634 875.626 842.815 875.626 841.996 875.626C840.767 876.036 839.742 876.241 838.923 876.241C829.501 876.241 820.899 873.168 813.115 867.023C804.922 860.879 800.416 853.71 799.597 845.517C798.368 831.179 800.621 816.841 806.356 802.504C813.32 784.069 823.356 765.225 836.465 745.972C849.574 726.718 864.117 707.875 880.093 689.44C895.66 671.006 911.636 653.391 928.022 636.596C944.408 619.39 959.565 603.824 973.493 589.896C975.132 588.257 976.361 586.823 977.18 585.594H957.517H947.685C945.637 585.594 943.793 585.799 942.155 586.209C940.926 586.209 939.287 586.209 937.239 586.209C924.13 586.209 912.046 583.546 900.985 578.22C889.105 572.485 881.527 565.931 878.25 558.557C874.563 551.184 874.563 540.942 878.25 527.834C881.936 515.954 886.852 504.074 892.997 492.194C899.551 480.314 906.925 468.844 915.118 457.783C923.721 446.723 932.938 436.482 942.769 427.06C952.601 417.638 962.637 409.445 972.879 402.481C978.204 399.204 983.529 396.541 988.855 394.493C994.59 392.444 1000.33 391.42 1006.06 391.42C1013.43 391.42 1021.01 393.264 1028.8 396.951C1035.76 400.228 1040.27 403.915 1042.31 408.011C1044.77 412.108 1045.18 417.638 1043.54 424.602C1043.13 426.24 1042.11 429.108 1040.47 433.204C1039.24 437.301 1037.6 441.602 1035.55 446.108C1033.92 450.205 1031.87 453.892 1029.41 457.169C1027.36 460.037 1025.31 461.47 1023.27 461.47C1022.45 461.47 1020.81 461.061 1018.35 460.241C1016.3 459.422 1014.25 458.603 1012.2 457.783C1010.57 456.555 1009.95 454.301 1010.36 451.024C1010.77 446.928 1011.39 443.241 1012.2 439.964C1013.43 436.277 1013.64 432.385 1012.82 428.289C1012.41 428.289 1012.2 428.289 1012.2 428.289C1012.2 427.879 1012 427.674 1011.59 427.674C1010.77 427.674 1009.95 428.494 1009.13 430.132C990.698 445.289 974.927 462.29 961.818 481.134C949.119 499.568 938.263 519.845 929.251 541.966C927.612 546.882 926.998 549.75 927.407 550.569C928.227 551.388 931.299 551.798 936.625 551.798C947.275 551.798 957.722 552.208 967.963 553.027C978.204 553.846 988.445 556.304 998.686 560.401C999.506 560.81 1000.33 561.015 1001.14 561.015C1002.78 561.015 1004.42 559.786 1006.06 557.328C1017.12 547.087 1028.18 537.051 1039.24 527.219C1050.71 517.387 1062.39 507.761 1074.27 498.339C1076.72 496.291 1080.21 493.833 1084.71 490.965C1089.22 487.688 1093.93 484.411 1098.85 481.134C1103.76 477.856 1108.68 475.194 1113.59 473.145C1118.51 470.687 1122.4 469.459 1125.27 469.459C1129.77 469.459 1134.9 471.302 1140.63 474.989C1143.09 476.627 1143.91 478.88 1143.09 481.748C1142.68 484.206 1140.83 486.049 1137.56 487.278C1128.55 491.784 1119.94 496.905 1111.75 502.64C1103.97 508.375 1096.18 514.315 1088.4 520.46C1078.16 529.063 1068.12 537.87 1058.29 546.882C1048.46 555.895 1038.63 565.112 1028.8 574.534ZM988.855 650.728C990.903 644.584 992.337 638.234 993.156 631.68C994.385 624.716 994.59 617.547 993.771 610.173C992.951 610.992 992.132 611.607 991.313 612.017C990.903 612.426 990.494 613.041 990.084 613.86C974.108 630.656 958.336 647.451 942.769 664.247C927.203 681.043 912.046 698.248 897.298 715.863C885.828 729.381 875.177 743.309 865.346 757.647C855.104 771.985 846.297 787.347 838.923 803.733C835.646 810.287 832.983 816.841 830.935 823.396C828.887 829.95 828.067 836.914 828.477 844.288C828.477 849.204 829.296 851.662 830.935 851.662C832.574 851.662 834.622 851.047 837.08 849.818C852.646 843.673 868.418 832.818 884.394 817.251C900.371 801.684 915.323 784.274 929.251 765.021C943.589 745.357 955.878 725.49 966.119 705.417C976.77 684.934 984.349 666.705 988.855 650.728Z" fill="#593848"/>
<path d="M1238.48 276.514C1222.91 320.346 1207.75 363.974 1193 407.397C1178.26 450.819 1164.94 495.062 1153.06 540.123C1152.65 541.762 1152.04 543.4 1151.22 545.039C1150.81 546.268 1150.81 547.906 1151.22 549.955C1155.32 544.22 1159 538.689 1162.28 533.364C1165.97 527.629 1169.45 522.098 1172.73 516.773C1181.74 503.664 1190.75 490.555 1199.76 477.447C1208.78 464.338 1218.4 451.434 1228.64 438.735C1231.51 435.458 1234.38 432.18 1237.25 428.903C1240.11 425.216 1243.39 422.144 1247.08 419.686C1251.58 416.409 1256.09 414.77 1260.6 414.77C1263.87 414.77 1267.15 415.59 1270.43 417.228C1273.71 418.457 1276.98 420.096 1280.26 422.144C1284.77 425.012 1287.63 428.698 1288.86 433.204C1290.09 437.301 1290.3 441.807 1289.48 446.723C1287.84 463.928 1285.18 480.724 1281.49 497.11C1277.8 513.086 1274.93 529.677 1272.89 546.882C1272.07 555.075 1271.25 563.063 1270.43 570.847C1270.02 578.63 1270.63 586.618 1272.27 594.811C1272.68 599.317 1273.91 601.57 1275.96 601.57C1277.19 601.57 1279.03 600.956 1281.49 599.727C1296.65 593.582 1311.39 586.618 1325.73 578.835C1340.07 571.052 1354.2 562.449 1368.13 553.027C1372.23 550.159 1376.53 548.726 1381.03 548.726C1385.95 548.726 1391.27 550.364 1397.01 553.641C1399.88 555.69 1401.31 558.148 1401.31 561.015C1401.72 563.473 1400.7 565.726 1398.24 567.774C1393.73 572.281 1387.38 577.196 1379.19 582.522C1371 587.847 1362.39 593.173 1353.38 598.498C1344.37 603.824 1335.56 608.739 1326.96 613.246C1318.36 617.342 1310.98 620.824 1304.84 623.692C1296.24 626.969 1288.45 628.607 1281.49 628.607C1268.38 628.607 1258.14 624.92 1250.77 617.547C1243.39 610.173 1238.68 600.137 1236.63 587.438C1234.58 573.1 1234.58 558.967 1236.63 545.039C1238.68 531.111 1241.14 516.978 1244.01 502.64C1244.83 497.315 1245.85 492.194 1247.08 487.278C1248.72 481.953 1250.15 476.627 1251.38 471.302C1251.38 470.483 1251.38 469.663 1251.38 468.844C1251.79 468.025 1251.58 467.205 1250.77 466.386C1249.54 466.796 1248.72 467.615 1248.31 468.844C1247.9 469.663 1247.28 470.483 1246.46 471.302C1231.72 491.784 1217.17 513.086 1202.84 535.207C1188.5 557.328 1175.18 579.859 1162.9 602.799C1150.61 625.74 1139.34 649.295 1129.1 673.464C1119.27 697.633 1111.28 722.212 1105.13 747.201C1102.68 757.033 1098.17 761.948 1091.62 761.948C1087.11 761.948 1082.4 760.924 1077.48 758.876C1072.57 756.828 1068.47 754.575 1065.19 752.117C1059.05 747.611 1056.59 741.671 1057.82 734.297C1059.87 721.188 1062.53 708.489 1065.81 696.2C1068.68 683.5 1071.75 670.801 1075.03 658.102C1080.76 634.342 1086.29 610.583 1091.62 586.823C1096.94 563.063 1103.09 539.304 1110.05 515.544C1117.01 490.146 1124.59 465.157 1132.79 440.578C1141.39 415.999 1150.2 391.42 1159.21 366.841C1172.32 329.973 1185.63 293.514 1199.15 257.465C1212.67 221.416 1226.6 185.366 1240.93 149.317C1250.36 125.967 1259.98 102.822 1269.81 79.8817C1279.65 56.9413 1290.5 34.2058 1302.38 11.675C1306.89 3.89168 1313.03 0 1320.82 0C1326.96 0 1332.49 2.66272 1337.41 7.98817C1339.45 10.4461 1340.27 12.904 1339.86 15.3618C1339.86 17.8198 1339.25 20.4825 1338.02 23.35C1333.92 32.772 1329.83 42.3987 1325.73 52.2303C1321.63 61.6523 1317.54 71.0742 1313.44 80.4962C1299.92 112.858 1287.02 145.426 1274.73 178.198C1262.44 210.56 1250.36 243.332 1238.48 276.514Z" fill="#593848"/>
<path d="M1578.2 452.868C1567.14 473.76 1557.1 495.062 1548.09 516.773C1539.49 538.075 1532.32 560.401 1526.58 583.751C1524.12 593.173 1522.08 602.595 1520.44 612.017C1518.8 621.438 1519 631.27 1521.05 641.511C1521.46 645.608 1522.49 647.656 1524.12 647.656C1525.76 647.656 1528.43 646.222 1532.11 643.355C1535.8 640.078 1539.69 636.595 1543.79 632.909C1548.29 628.812 1552.39 624.921 1556.08 621.234C1559.76 617.137 1562.22 614.474 1563.45 613.246C1577.38 597.679 1590.69 582.112 1603.39 566.545C1616.5 550.569 1628.79 533.978 1640.26 516.773C1642.31 513.086 1645.59 511.243 1650.09 511.243C1653.37 512.062 1656.44 512.881 1659.31 513.701C1662.18 514.11 1664.63 515.954 1666.68 519.231C1667.5 521.279 1667.5 523.123 1666.68 524.761C1665.86 526.4 1665.04 528.243 1664.22 530.291C1657.67 541.352 1650.09 552.822 1641.49 564.702C1632.89 576.582 1623.87 588.462 1614.45 600.342C1605.03 612.221 1595.2 623.692 1584.96 634.752C1575.13 645.403 1565.5 655.03 1556.08 663.632C1546.66 671.825 1537.23 675.922 1527.81 675.922C1515.11 675.922 1504.87 671.621 1497.09 663.018C1489.3 654.415 1484.39 644.379 1482.34 632.909C1481.11 625.945 1480.7 619.185 1481.11 612.631C1481.52 605.667 1482.34 598.703 1483.57 591.739C1483.57 590.92 1483.57 590.1 1483.57 589.281C1483.98 588.462 1483.77 587.438 1482.95 586.209C1478.45 592.353 1473.94 598.498 1469.44 604.643C1465.34 610.378 1461.04 616.113 1456.53 621.848C1452.03 627.583 1447.32 633.318 1442.4 639.053C1437.89 644.379 1432.98 649.704 1427.65 655.03C1426.42 656.259 1425.19 657.488 1423.97 658.717C1422.74 659.946 1421.51 660.97 1420.28 661.789C1413.31 668.343 1405.33 671.621 1396.31 671.621C1386.07 671.621 1377.27 668.343 1369.89 661.789C1362.52 655.235 1358.22 646.837 1356.99 636.596C1355.35 625.535 1355.55 614.884 1357.6 604.643C1359.65 593.992 1362.31 583.546 1365.59 573.305C1369.69 562.244 1375.83 548.316 1384.02 531.52C1392.22 514.315 1401.84 497.929 1412.9 482.362C1423.97 466.796 1436.25 453.482 1449.77 442.422C1463.29 430.951 1477.01 425.216 1490.94 425.216C1500.36 425.216 1509.79 427.674 1519.21 432.59C1529.04 437.506 1535.39 445.289 1538.26 455.94C1540.72 452.663 1542.97 449.59 1545.02 446.723C1547.47 443.446 1549.73 440.169 1551.78 436.891C1554.64 432.795 1558.54 430.747 1563.45 430.747C1567.96 430.747 1572.46 432.385 1576.97 435.662C1579.84 437.711 1581.27 439.964 1581.27 442.422C1581.68 444.88 1580.66 448.362 1578.2 452.868ZM1517.37 491.58C1518.18 490.76 1519 489.736 1519.82 488.507C1521.05 487.278 1520.64 485.844 1518.59 484.206C1516.55 482.567 1515.32 480.724 1514.91 478.676C1514.5 476.627 1514.29 474.374 1514.29 471.916C1514.29 469.049 1513.88 466.386 1513.06 463.928C1512.65 461.47 1512.04 458.808 1511.22 455.94C1509.99 451.844 1507.74 449.795 1504.46 449.795C1503.64 449.795 1502 450.205 1499.55 451.024C1493.4 453.892 1487.87 457.374 1482.95 461.47C1478.04 465.567 1473.33 470.073 1468.82 474.989C1459.81 485.23 1450.8 496.905 1441.79 510.014C1433.18 523.123 1425.19 537.051 1417.82 551.798C1410.86 566.136 1405.12 580.883 1400.62 596.04C1396.52 610.788 1394.47 625.33 1394.47 639.668C1398.16 637.62 1401.43 635.367 1404.3 632.909C1407.17 630.041 1409.83 627.174 1412.29 624.306C1431.54 603.414 1449.57 581.907 1466.36 559.786C1483.57 537.255 1500.57 514.52 1517.37 491.58Z" fill="#593848"/>
<path d="M1107.2 860.5C1118 860.5 1127.2 862.4 1134.8 866.2C1142.6 869.8 1148.6 875 1152.8 881.8C1157 888.6 1159.1 896.9 1159.1 906.7C1159.1 919.3 1155 930 1146.8 938.8C1138.8 947.6 1128.6 955.6 1116.2 962.8L1174.1 1018.6C1179.3 1012.4 1183.5 1005.3 1186.7 997.3C1190.1 989.1 1192.9 980.3 1195.1 970.9H1221.8C1218.6 983.7 1214.6 995.6 1209.8 1006.6C1205 1017.6 1198.8 1027.2 1191.2 1035.4L1235 1078H1199.3L1173.2 1052.8C1168.4 1057 1163.4 1060.9 1158.2 1064.5C1153.2 1067.9 1147.7 1070.8 1141.7 1073.2C1135.7 1075.6 1129.2 1077.5 1122.2 1078.9C1115.4 1080.3 1107.8 1081 1099.4 1081C1085.6 1081 1073.6 1078.8 1063.4 1074.4C1053.4 1069.8 1045.6 1063.1 1040 1054.3C1034.6 1045.5 1031.9 1034.8 1031.9 1022.2C1031.9 1012 1033.7 1003.2 1037.3 995.8C1041.1 988.4 1046.5 981.8 1053.5 976C1060.5 970.2 1068.7 964.6 1078.1 959.2C1073.9 954.4 1069.8 949.4 1065.8 944.2C1061.8 939 1058.5 933.4 1055.9 927.4C1053.3 921.2 1052 914.5 1052 907.3C1052 897.5 1054.2 889.1 1058.6 882.1C1063 875.1 1069.3 869.8 1077.5 866.2C1085.9 862.4 1095.8 860.5 1107.2 860.5ZM1094 975.7C1086.8 979.9 1080.6 984.2 1075.4 988.6C1070.4 992.8 1066.5 997.5 1063.7 1002.7C1060.9 1007.9 1059.5 1014.1 1059.5 1021.3C1059.5 1032.3 1063.2 1041.1 1070.6 1047.7C1078 1054.3 1087.9 1057.6 1100.3 1057.6C1113.1 1057.6 1124.1 1055.5 1133.3 1051.3C1142.5 1047.1 1150.2 1042.1 1156.4 1036.3L1094 975.7ZM1106.3 882.1C1097.9 882.1 1091 884.3 1085.6 888.7C1080.4 893.1 1077.8 899.2 1077.8 907C1077.8 914.2 1079.7 920.9 1083.5 927.1C1087.3 933.1 1092.8 939.8 1100 947.2C1111.8 940.4 1120.2 934 1125.2 928C1130.4 921.8 1133 914.7 1133 906.7C1133 899.5 1130.6 893.6 1125.8 889C1121 884.4 1114.5 882.1 1106.3 882.1Z" fill="#593848"/>
<path d="M41.7843 1293.67C22.9404 1285.48 10.8557 1274.63 5.53027 1261.11C0.614477 1247.59 -1.02412 1232.43 0.614474 1215.64C4.71097 1184.5 17.2053 1153.16 38.0974 1121.62C59.3992 1089.67 85.8216 1058.94 117.365 1029.45C148.908 999.955 184.342 972.304 223.669 946.496C262.995 920.688 303.141 898.362 344.106 879.518C385.071 860.265 425.216 845.313 464.543 834.662C504.279 823.601 540.123 818.071 572.076 818.071C588.871 818.071 605.872 819.914 623.077 823.601C640.692 826.878 656.464 832.613 670.392 840.806C684.729 848.59 696.404 859.241 705.417 872.759C714.429 885.868 719.14 902.254 719.55 921.917C719.959 946.906 715.043 973.942 704.802 1003.03C694.971 1032.11 681.452 1061.81 664.247 1092.13C647.451 1122.44 627.993 1152.75 605.872 1183.07C583.751 1212.97 560.605 1241.44 536.436 1268.48C512.676 1295.52 488.712 1320.3 464.543 1342.83C440.783 1364.95 418.662 1383.59 398.179 1398.75C379.745 1411.86 360.901 1423.74 341.648 1434.39C322.804 1444.63 302.321 1452.62 280.2 1458.35C277.742 1459.17 275.285 1459.99 272.827 1460.81C270.778 1461.22 268.525 1461.43 266.067 1461.43C262.79 1461.84 260.537 1462.86 259.308 1464.5C258.079 1466.14 257.055 1468.18 256.236 1470.64C250.501 1495.22 244.971 1519.6 239.645 1543.77C234.729 1567.52 230.018 1591.69 225.512 1616.27C224.693 1620.37 223.874 1624.47 223.054 1628.56C222.235 1632.66 221.416 1636.96 220.596 1641.47C220.596 1643.51 220.596 1645.36 220.596 1647C221.006 1648.64 222.235 1650.07 224.283 1651.3C229.609 1654.58 230.223 1658.88 226.127 1664.2C222.03 1669.53 217.524 1672.19 212.608 1672.19C210.56 1672.19 208.921 1671.99 207.692 1671.58C200.319 1669.53 194.379 1666.66 189.873 1662.97C185.366 1659.29 183.523 1652.12 184.342 1641.47C186.8 1617.3 190.282 1593.54 194.788 1570.19C199.704 1546.84 204.415 1523.28 208.921 1499.52C210.15 1492.97 211.379 1486.62 212.608 1480.47C213.837 1474.33 215.271 1468.18 216.909 1462.04C217.319 1459.17 216.295 1456.92 213.837 1455.28C204.415 1449.55 198.475 1443.4 196.017 1436.85C193.559 1430.29 193.969 1421.69 197.246 1411.04C201.752 1395.47 208.102 1381.54 216.295 1369.25C224.898 1356.56 234.524 1344.27 245.175 1332.39C248.862 1328.7 251.73 1323.78 253.778 1317.64C284.911 1210.72 325.671 1107.69 376.058 1008.56C378.516 1004.05 381.998 997.497 386.504 988.895C391.42 979.882 396.95 971.075 403.095 962.472C409.24 953.87 415.59 946.291 422.144 939.737C429.108 933.182 435.662 929.905 441.807 929.905C446.313 929.905 450.819 931.544 455.326 934.821C458.193 936.869 459.627 939.122 459.627 941.58C459.627 944.038 457.988 946.291 454.711 948.339C452.253 949.568 449.181 952.846 445.494 958.171C441.807 963.496 437.711 969.846 433.204 977.22C429.108 984.593 424.807 992.582 420.3 1001.18C416.204 1009.79 412.108 1018.18 408.011 1026.38C404.324 1034.16 401.047 1041.33 398.179 1047.88C395.312 1054.44 393.264 1059.35 392.035 1062.63C376.468 1097.86 361.925 1133.3 348.407 1168.94C335.298 1204.17 323.009 1240.01 311.539 1276.47C311.129 1277.29 310.719 1278.31 310.31 1279.54C309.9 1280.36 309.9 1281.38 310.31 1282.61C312.768 1281.38 315.225 1280.16 317.683 1278.93C320.141 1277.7 322.804 1276.47 325.671 1275.24C328.129 1274.01 331.202 1273.4 334.889 1273.4C338.985 1273.4 342.877 1274.01 346.564 1275.24C350.66 1276.47 353.937 1278.31 356.395 1280.77C358.443 1282.82 359.263 1285.48 358.853 1288.76C358.443 1291.63 356.805 1294.08 353.937 1296.13C351.889 1297.36 349.841 1298.59 347.793 1299.82C345.744 1300.64 343.696 1301.46 341.648 1302.28C326.491 1310.47 311.743 1320.71 297.406 1333C294.128 1335.46 292.08 1338.12 291.261 1340.99C287.574 1354.1 283.887 1367.41 280.2 1380.93C276.514 1394.04 273.031 1407.15 269.754 1420.26C269.754 1420.26 269.754 1421.07 269.754 1422.71C283.682 1418.21 297.815 1411.86 312.153 1403.66C326.9 1395.47 341.238 1386.46 355.166 1376.63C369.094 1366.39 382.408 1355.94 395.107 1345.29C408.216 1334.23 419.891 1323.78 430.132 1313.95C452.253 1292.65 475.808 1267.87 500.797 1239.6C526.195 1210.92 550.159 1180.61 572.69 1148.66C595.631 1116.71 615.908 1083.93 633.523 1050.34C651.138 1016.34 663.632 983.774 671.006 952.641C673.054 944.038 674.283 935.435 674.693 926.833C675.512 918.23 675.512 909.218 674.693 899.796C673.054 888.326 669.368 879.109 663.632 872.145C657.897 865.181 650.728 859.855 642.126 856.168C633.933 852.481 624.92 850.228 615.089 849.409C605.257 848.18 595.631 847.566 586.209 847.566C559.172 847.566 528.858 851.867 495.266 860.47C462.085 869.072 427.674 880.952 392.035 896.109C356.805 911.266 321.575 929.291 286.345 950.183C251.115 970.665 218.138 992.786 187.415 1016.55C156.691 1040.31 129.244 1065.29 105.075 1091.51C81.3154 1117.73 62.8812 1144.15 49.7724 1170.78C44.447 1181.84 40.1457 1193.1 36.8685 1204.58C33.5913 1216.05 31.9527 1227.93 31.9527 1240.21C31.9527 1251.68 34.6154 1260.7 39.9408 1267.25C45.2663 1273.4 51.8207 1278.11 59.604 1281.38C67.797 1284.25 76.8093 1286.1 86.6409 1286.91C96.4725 1287.32 105.69 1287.53 114.292 1287.53C118.798 1287.53 123.305 1287.53 127.811 1287.53C132.726 1287.12 137.437 1286.71 141.944 1286.3C142.763 1286.3 143.787 1286.3 145.016 1286.3C146.245 1285.89 147.269 1285.69 148.088 1285.69C152.594 1285.69 156.486 1286.51 159.763 1288.14C161.402 1288.96 162.836 1289.78 164.065 1290.6C165.294 1291.42 165.703 1292.85 165.294 1294.9C164.884 1297.36 162.221 1299.41 157.305 1301.05C152.39 1302.28 146.655 1303.3 140.1 1304.12C133.546 1304.53 127.196 1304.94 121.051 1305.35C115.316 1305.35 111.425 1305.35 109.376 1305.35C98.7256 1305.35 87.0505 1304.53 74.3514 1302.89C62.0619 1301.25 51.2062 1298.18 41.7843 1293.67Z" fill="#593848"/>
<path d="M800.43 1259.88C789.369 1280.77 779.333 1302.07 770.32 1323.78C761.718 1345.09 754.549 1367.41 748.814 1390.76C746.356 1400.18 744.308 1409.6 742.669 1419.03C741.031 1428.45 741.235 1438.28 743.284 1448.52C743.693 1452.62 744.717 1454.67 746.356 1454.67C747.995 1454.67 750.657 1453.23 754.344 1450.36C758.031 1447.09 761.923 1443.61 766.019 1439.92C770.525 1435.82 774.622 1431.93 778.309 1428.24C781.995 1424.15 784.453 1421.48 785.682 1420.26C799.61 1404.69 812.924 1389.12 825.623 1373.56C838.732 1357.58 851.021 1340.99 862.492 1323.78C864.54 1320.1 867.817 1318.25 872.323 1318.25C875.6 1319.07 878.673 1319.89 881.54 1320.71C884.408 1321.12 886.866 1322.96 888.914 1326.24C889.733 1328.29 889.733 1330.13 888.914 1331.77C888.095 1333.41 887.275 1335.25 886.456 1337.3C879.902 1348.36 872.323 1359.83 863.721 1371.71C855.118 1383.59 846.106 1395.47 836.684 1407.35C827.262 1419.23 817.43 1430.7 807.189 1441.76C797.357 1452.41 787.731 1462.04 778.309 1470.64C768.887 1478.84 759.465 1482.93 750.043 1482.93C737.344 1482.93 727.102 1478.63 719.319 1470.03C711.536 1461.43 706.62 1451.39 704.572 1439.92C703.343 1432.95 702.933 1426.2 703.343 1419.64C703.752 1412.68 704.572 1405.71 705.801 1398.75C705.801 1397.93 705.801 1397.11 705.801 1396.29C706.21 1395.47 706.005 1394.45 705.186 1393.22C700.68 1399.36 696.174 1405.51 691.668 1411.65C687.571 1417.39 683.27 1423.12 678.764 1428.86C674.258 1434.59 669.547 1440.33 664.631 1446.06C660.125 1451.39 655.209 1456.71 649.883 1462.04C648.655 1463.27 647.426 1464.5 646.197 1465.73C644.968 1466.96 643.739 1467.98 642.51 1468.8C635.546 1475.35 627.558 1478.63 618.545 1478.63C608.304 1478.63 599.497 1475.35 592.123 1468.8C584.749 1462.24 580.448 1453.85 579.219 1443.61C577.58 1432.55 577.785 1421.89 579.833 1411.65C581.882 1401 584.544 1390.56 587.822 1380.31C591.918 1369.25 598.063 1355.33 606.256 1338.53C614.449 1321.33 624.076 1304.94 635.136 1289.37C646.197 1273.81 658.486 1260.49 672.005 1249.43C685.523 1237.96 699.246 1232.23 713.174 1232.23C722.596 1232.23 732.018 1234.68 741.44 1239.6C751.272 1244.52 757.621 1252.3 760.489 1262.95C762.947 1259.67 765.2 1256.6 767.248 1253.73C769.706 1250.46 771.959 1247.18 774.007 1243.9C776.875 1239.81 780.767 1237.76 785.682 1237.76C790.188 1237.76 794.695 1239.4 799.201 1242.67C802.068 1244.72 803.502 1246.97 803.502 1249.43C803.912 1251.89 802.888 1255.37 800.43 1259.88ZM739.597 1298.59C740.416 1297.77 741.235 1296.75 742.055 1295.52C743.284 1294.29 742.874 1292.85 740.826 1291.22C738.777 1289.58 737.548 1287.73 737.139 1285.69C736.729 1283.64 736.524 1281.38 736.524 1278.93C736.524 1276.06 736.115 1273.4 735.295 1270.94C734.886 1268.48 734.271 1265.82 733.452 1262.95C732.223 1258.85 729.97 1256.81 726.693 1256.81C725.874 1256.81 724.235 1257.22 721.777 1258.03C715.632 1260.9 710.102 1264.38 705.186 1268.48C700.27 1272.58 695.559 1277.08 691.053 1282C682.041 1292.24 673.029 1303.92 664.016 1317.02C655.414 1330.13 647.426 1344.06 640.052 1358.81C633.088 1373.15 627.353 1387.89 622.847 1403.05C618.75 1417.8 616.702 1432.34 616.702 1446.68C620.389 1444.63 623.666 1442.38 626.533 1439.92C629.401 1437.05 632.064 1434.18 634.522 1431.32C653.775 1410.42 671.8 1388.92 688.595 1366.8C705.801 1344.27 722.801 1321.53 739.597 1298.59Z" fill="#593848"/>
<path d="M976.28 1363.11C980.376 1351.23 984.882 1339.55 989.798 1328.08C995.124 1316.61 1000.24 1304.94 1005.16 1293.06C1006.8 1289.78 1008.03 1287.12 1008.85 1285.07C1002.7 1289.99 996.762 1295.31 991.027 1301.05C985.702 1306.37 980.376 1311.9 975.051 1317.64C954.159 1339.76 934.905 1362.5 917.29 1385.85C899.675 1409.2 882.675 1433.77 866.289 1459.58C863.012 1463.68 859.325 1465.73 855.228 1465.73C854.409 1465.73 853.795 1465.73 853.385 1465.73C852.975 1465.32 852.361 1465.11 851.542 1465.11C844.577 1463.88 837.613 1460.61 830.649 1455.28C827.372 1452.82 825.734 1449.96 825.734 1446.68C825.324 1443.4 825.529 1440.12 826.348 1436.85C830.854 1410.63 837.818 1385.64 847.24 1361.88C856.662 1337.71 867.723 1313.95 880.422 1290.6C882.88 1286.1 885.338 1281.59 887.796 1277.08C890.663 1272.58 893.735 1268.28 897.013 1264.18C900.699 1260.08 906.23 1258.03 913.603 1258.03C916.881 1258.03 920.158 1258.65 923.435 1259.88C926.712 1261.11 929.375 1262.95 931.423 1265.41C933.881 1269.09 933.676 1273.19 930.809 1277.7C922.616 1290.4 915.447 1303.71 909.302 1317.64C903.567 1331.16 897.832 1344.68 892.097 1358.19V1362.5C909.302 1341.6 927.532 1321.33 946.785 1301.66C966.448 1281.59 986.726 1262.95 1007.62 1245.74C1008.85 1244.93 1010.08 1244.11 1011.3 1243.29C1012.53 1242.47 1013.56 1241.44 1014.38 1240.21C1019.7 1236.12 1025.03 1234.07 1030.35 1234.07C1036.09 1234.07 1041.82 1235.71 1047.56 1238.99C1053.7 1241.85 1056.16 1247.18 1054.93 1254.96C1053.7 1261.93 1051.86 1268.69 1049.4 1275.24C1046.94 1281.38 1044.28 1287.53 1041.41 1293.67C1034.45 1309.24 1027.69 1324.6 1021.14 1339.76C1014.58 1354.92 1008.64 1370.48 1003.32 1386.46C1000.45 1395.06 997.786 1403.87 995.329 1412.88C993.28 1421.48 992.256 1430.29 992.256 1439.3C992.256 1441.35 992.256 1443.61 992.256 1446.06C992.666 1448.11 993.485 1449.55 994.714 1450.36C995.124 1450.77 995.738 1450.98 996.557 1450.98C998.196 1450.98 999.63 1450.36 1000.86 1449.14C1002.5 1447.5 1003.73 1446.27 1004.55 1445.45C1010.69 1440.94 1017.86 1433.77 1026.05 1423.94C1034.65 1413.7 1043.05 1403.05 1051.25 1391.99C1059.85 1380.52 1067.63 1369.46 1074.6 1358.81C1081.97 1347.75 1087.7 1338.94 1091.8 1332.39C1093.85 1329.11 1096.31 1327.47 1099.17 1327.47C1102.04 1327.47 1105.32 1328.7 1109.01 1331.16C1112.28 1332.8 1113.72 1334.64 1113.31 1336.69C1112.9 1338.74 1112.08 1340.99 1110.85 1343.45C1107.16 1349.59 1101.43 1358.81 1093.64 1371.1C1086.27 1383.39 1077.87 1396.09 1068.45 1409.2C1059.44 1421.89 1050.43 1433.77 1041.41 1444.83C1032.4 1455.9 1024.62 1463.27 1018.06 1466.96C1011.51 1471.05 1004.75 1473.1 997.786 1473.1C988.774 1473.1 980.786 1470.03 973.822 1463.88C967.268 1457.74 963.376 1449.55 962.147 1439.3C960.508 1425.79 961.328 1412.88 964.605 1400.59C967.882 1387.89 971.774 1375.4 976.28 1363.11Z" fill="#593848"/>
<path d="M1262.52 1280.77C1262.93 1279.95 1263.34 1279.13 1263.75 1278.31C1264.16 1277.49 1263.96 1276.26 1263.14 1274.63C1244.29 1302.07 1224.84 1328.9 1204.76 1355.12C1185.1 1381.34 1163.18 1405.92 1139.01 1428.86C1134.92 1432.14 1130.82 1435.62 1126.73 1439.3C1122.63 1442.58 1118.33 1445.65 1113.82 1448.52C1108.5 1451.8 1102.56 1453.44 1096 1453.44C1089.45 1453.44 1083.1 1452 1076.95 1449.14C1070.4 1446.27 1065.48 1442.38 1062.21 1437.46C1058.11 1430.91 1057.08 1423.53 1059.13 1415.34C1064.87 1383.8 1074.9 1354.71 1089.24 1328.08C1103.17 1301.46 1122.01 1277.29 1145.77 1255.58C1153.97 1248.61 1162.77 1242.67 1172.2 1237.76C1181.62 1232.84 1191.65 1230.38 1202.31 1230.38C1208.45 1230.38 1214.19 1231.41 1219.51 1233.46C1225.25 1235.5 1230.78 1238.17 1236.1 1241.44C1238.15 1242.67 1239.38 1243.29 1239.79 1243.29C1241.43 1243.29 1242.86 1242.26 1244.09 1240.21C1257.61 1220.55 1270.31 1200.68 1282.19 1180.61C1294.48 1160.13 1306.56 1139.44 1318.44 1118.55C1333.19 1093.15 1347.12 1067.55 1360.23 1041.74C1373.74 1015.93 1387.67 990.124 1402.01 964.316C1407.34 954.894 1412.66 945.881 1417.99 937.279C1423.31 928.267 1428.64 919.254 1433.96 910.242C1436.42 905.736 1440.11 903.483 1445.02 903.483C1448.71 903.483 1452.19 904.507 1455.47 906.555C1465.3 909.832 1467.55 916.182 1462.23 925.604C1455.67 937.484 1448.91 949.363 1441.95 961.243C1435.4 973.123 1428.84 985.003 1422.29 996.883C1406.72 1026.38 1392.18 1056.28 1378.66 1086.6C1365.55 1116.5 1352.44 1146.81 1339.33 1177.54C1324.18 1213.18 1309.84 1248.82 1296.32 1284.46C1283.21 1320.1 1270.92 1356.35 1259.45 1393.22C1249.62 1423.53 1240.61 1453.85 1232.41 1484.16C1224.63 1514.48 1216.85 1544.99 1209.06 1575.72C1200.46 1610.54 1192.06 1645.15 1183.87 1679.56C1175.68 1714.38 1168.1 1749.41 1161.14 1784.64C1160.73 1785.87 1160.52 1787.92 1160.52 1790.78C1160.11 1796.93 1157.65 1800 1153.15 1800C1150.69 1800 1148.85 1799.8 1147.62 1799.39C1141.88 1797.34 1138.2 1794.68 1136.56 1791.4C1134.92 1788.12 1134.71 1783 1135.94 1776.04C1137.99 1761.7 1140.45 1747.57 1143.32 1733.64C1146.18 1720.12 1149.26 1706.4 1152.53 1692.47C1168.1 1622.83 1184.28 1553.8 1201.08 1485.39C1218.28 1416.57 1238.76 1348.36 1262.52 1280.77ZM1221.97 1271.55C1224.02 1269.09 1224.43 1267.05 1223.2 1265.41C1221.97 1263.77 1220.94 1261.93 1220.13 1259.88C1219.31 1257.83 1218.08 1256.81 1216.44 1256.81C1215.21 1256.81 1213.78 1257.22 1212.14 1258.03C1201.9 1261.72 1191.86 1268.48 1182.03 1278.31C1172.2 1287.73 1163.18 1298.59 1154.99 1310.88C1146.8 1322.76 1139.42 1334.84 1132.87 1347.13C1126.32 1359.42 1121.19 1370.28 1117.51 1379.7C1116.69 1382.16 1115.66 1384.82 1114.44 1387.69C1113.62 1390.15 1113 1393.01 1112.59 1396.29C1114.23 1394.65 1115.46 1393.63 1116.28 1393.22C1136.35 1374.78 1154.99 1355.53 1172.2 1335.46C1189.4 1314.98 1205.99 1293.67 1221.97 1271.55Z" fill="#593848"/>
<path d="M1527.02 1384.62C1541.35 1369.87 1555.28 1354.71 1568.8 1339.15C1582.73 1323.58 1596.66 1308.01 1610.59 1292.45C1613.45 1289.17 1617.75 1287.53 1623.49 1287.53C1629.63 1287.53 1634.14 1289.58 1637.01 1293.67C1638.65 1295.72 1639.06 1297.77 1638.24 1299.82C1637.83 1301.87 1637.01 1303.71 1635.78 1305.35C1631.68 1310.26 1627.59 1315.39 1623.49 1320.71C1619.8 1325.63 1615.91 1330.34 1611.81 1334.84C1600.34 1348.36 1588.87 1361.88 1577.4 1375.4C1566.34 1388.51 1554.87 1401.21 1542.99 1413.5C1538.49 1418 1533.98 1422.3 1529.47 1426.4C1525.38 1430.09 1520.67 1433.57 1515.34 1436.85C1508.79 1441.76 1501.82 1444.22 1494.45 1444.22C1482.57 1444.22 1473.35 1440.53 1466.8 1433.16C1460.24 1425.38 1456.56 1415.95 1455.74 1404.89C1455.33 1400.39 1455.33 1396.09 1455.74 1391.99C1456.15 1387.48 1456.76 1382.57 1457.58 1377.24C1455.12 1380.52 1452.87 1383.39 1450.82 1385.85C1448.77 1388.3 1446.73 1390.56 1444.68 1392.6C1437.3 1401.62 1429.93 1410.42 1422.56 1419.03C1415.18 1427.63 1406.78 1435.41 1397.36 1442.38C1385.89 1450.98 1375.04 1455.28 1364.8 1455.28C1357.01 1455.28 1348 1452.41 1337.76 1446.68C1329.98 1442.17 1324.65 1436.44 1321.78 1429.47C1318.91 1422.1 1317.89 1413.91 1318.71 1404.89C1319.53 1393.83 1322.19 1381.13 1326.7 1366.8C1331.2 1352.46 1336.94 1338.12 1343.9 1323.78C1350.46 1309.45 1357.83 1295.93 1366.02 1283.23C1374.22 1270.12 1382.41 1259.26 1390.6 1250.66C1396.75 1244.11 1402.48 1240.83 1407.81 1240.83C1411.91 1240.83 1416.62 1242.26 1421.94 1245.13C1428.91 1248.82 1430.13 1253.94 1425.63 1260.49C1412.52 1280.16 1401.25 1300.64 1391.83 1321.94C1382.41 1342.83 1374.42 1364.54 1367.87 1387.07C1367.05 1390.35 1366.43 1393.63 1366.02 1396.91C1365.61 1399.77 1365.21 1402.85 1364.8 1406.12C1364.39 1407.35 1363.98 1408.79 1363.57 1410.42C1363.57 1412.06 1364.18 1413.29 1365.41 1414.11C1366.23 1414.52 1366.64 1414.73 1366.64 1414.73C1367.87 1414.73 1368.89 1414.32 1369.71 1413.5C1370.94 1412.27 1371.96 1411.24 1372.78 1410.42C1379.34 1405.51 1385.48 1400.18 1391.22 1394.45C1396.95 1388.71 1402.69 1382.77 1408.42 1376.63C1427.27 1355.74 1445.29 1334.84 1462.5 1313.95C1479.7 1292.65 1496.91 1270.94 1514.11 1248.82C1519.03 1242.67 1524.76 1239.6 1531.32 1239.6C1537.05 1239.6 1542.58 1241.85 1547.91 1246.36C1550.37 1248.82 1551.39 1251.48 1550.98 1254.35C1550.57 1256.81 1549.75 1259.26 1548.52 1261.72C1544.84 1268.69 1541.15 1275.65 1537.46 1282.61C1534.19 1289.58 1530.7 1296.54 1527.02 1303.51C1520.46 1316.61 1514.11 1329.93 1507.97 1343.45C1501.82 1356.56 1497.11 1370.28 1493.84 1384.62C1491.38 1394.45 1490.76 1404.69 1491.99 1415.34C1498.96 1410.83 1505.1 1406.12 1510.43 1401.21C1516.16 1395.88 1521.69 1390.35 1527.02 1384.62Z" fill="#593848"/>
</svg>
